<?xml version="1.0" encoding="UTF-8" ?>
<!DOCTYPE svg PUBLIC "-//W3C//DTD SVG 1.1//EN" "http://www.w3.org/Graphics/SVG/1.1/DTD/svg11.dtd">
<svg width="128pt" height="128pt" viewBox="0 0 128 128" version="1.1" xmlns="http://www.w3.org/2000/svg">
<path fill="#000000" d=" M 0.00 0.00 L 128.00 0.00 L 128.00 128.00 L 0.00 128.00 L 0.00 0.00 Z" />
<path fill="#ffffff" d=" M 8.00 8.00 C 45.33 8.00 82.67 8.00 120.00 8.00 C 120.00 45.33 120.00 82.67 120.00 120.00 C 82.67 120.00 45.33 120.00 8.00 120.00 C 8.00 82.67 8.00 45.33 8.00 8.00 Z" />
<path fill="#000000" d=" M 31.91 32.01 C 50.44 32.33 68.99 32.47 87.51 31.96 C 87.48 33.20 87.42 34.45 87.34 35.70 C 85.69 35.81 83.97 35.63 82.38 36.17 C 80.21 38.10 81.21 41.42 80.78 43.99 C 80.87 56.83 80.43 69.69 81.04 82.51 C 87.52 82.19 94.23 83.30 100.53 81.41 C 101.67 79.03 101.65 76.30 102.50 73.81 C 103.32 73.80 104.98 73.76 105.80 73.74 C 105.16 78.28 104.88 82.87 104.98 87.46 C 91.78 87.83 78.59 86.92 65.40 87.52 C 64.94 85.14 67.51 84.33 68.89 83.04 C 69.66 69.69 69.06 56.29 69.24 42.93 C 68.94 40.61 69.78 36.86 66.92 35.98 C 62.36 35.54 57.68 35.34 53.14 36.08 C 50.90 37.32 51.72 40.23 51.36 42.34 C 51.12 54.55 51.30 66.76 51.26 78.96 C 51.32 85.04 50.49 91.60 46.39 96.38 C 42.20 101.38 36.01 106.45 29.02 104.58 C 29.12 101.75 28.51 98.77 29.64 96.09 C 31.96 97.51 34.70 100.41 37.63 98.71 C 40.04 96.86 39.28 93.37 39.68 90.71 C 39.85 75.13 39.69 59.54 39.76 43.95 C 39.66 41.70 39.83 39.35 39.04 37.21 C 37.79 35.18 35.10 36.07 33.13 35.65 C 31.32 35.66 32.28 33.09 31.91 32.01 Z" />
</svg>
